# xmcd CD database file
#
# Track frame offsets:
#	150
#	15824
#	28492
#	44967
#	59623
#	75863
#	89704
#	103905
#	115011
#	131258
#	143205
#	162016
#	179084
#	188923
#	203954
#	222043
#	233654
#
# Disc length: 3259 seconds
#
# Revision: 0
# Processed by: cddbd v1.5.1PL0 Copyright (c) Steve Scherf et al.
# Submitted via: CDex 1.51
#
DISCID=ef0cb911
DTITLE=Close Enough String Band - Cold Weather Woman
DYEAR=1900
DGENRE=Country
TTITLE0=Orphan Train
TTITLE1=Are You Tired of Me, My Darling?
TTITLE2=Charles Guiteau
TTITLE3=The Birds Were Singing of You
TTITLE4=Goin' Down to Cairo
TTITLE5=Home By the Sea
TTITLE6=Oh, Had I a Golden Thread
TTITLE7=I'm Thinking Tonight of my Blue Eyes
TTITLE8=Bury Me Beneath the Weeping Willow
TTITLE9=What Did the Deep Sea Say?
TTITLE10=Hard Times, Come Again No More
TTITLE11=The Storms are on the Ocean
TTITLE12=Lula Walls
TTITLE13=Sleepy Dreamer
TTITLE14=Curtains of Night
TTITLE15=Cold Weather Woman
TTITLE16=Anchored in Love
EXTD=
EXTT0=
EXTT1=
EXTT2=
EXTT3=
EXTT4=
EXTT5=
EXTT6=
EXTT7=
EXTT8=
EXTT9=
EXTT10=
EXTT11=
EXTT12=
EXTT13=
EXTT14=
EXTT15=
EXTT16=
PLAYORDER=
